<svg width="139" height="21" viewBox="0 0 139 21" fill="none" xmlns="http://www.w3.org/2000/svg">
<path d="M14.034 7.09766L14.1512 7.35059L14.4276 7.38379L20.8973 8.16699L16.1238 12.6045L15.9207 12.7939L15.9744 13.0674L17.2264 19.4619L11.533 16.2939L11.2899 16.1592L11.0467 16.2939L5.35138 19.4629L6.60529 13.0674L6.65802 12.7939L6.4549 12.6045L1.68146 8.16699L8.15118 7.38379L8.42755 7.35059L8.54474 7.09766L11.2889 1.1875L14.034 7.09766ZM43.1004 7.09766L43.2176 7.35059L43.494 7.38379L49.9627 8.16699L45.1902 12.6045L44.9861 12.7939L45.0399 13.0674L46.2928 19.4629L40.5984 16.2939L40.3553 16.1592L40.1121 16.2939L34.4168 19.4629L35.6707 13.0674L35.7244 12.7939L35.5203 12.6045L30.7469 8.16699L37.2166 7.38379L37.493 7.35059L37.6102 7.09766L40.3553 1.18652L43.1004 7.09766ZM72.1658 7.09766L72.283 7.35059L72.5594 7.38379L79.0281 8.16699L74.2557 12.6045L74.0516 12.7939L74.1053 13.0674L75.3582 19.4629L69.6639 16.2939L69.4207 16.1592L69.1776 16.2939L63.4832 19.4619L64.7361 13.0674L64.7899 12.7939L64.5858 12.6045L59.8123 8.16699L66.283 7.38379L66.5594 7.35059L66.6766 7.09766L69.4207 1.1875L72.1658 7.09766ZM101.231 7.09766L101.348 7.35059L101.625 7.38379L108.095 8.16699L103.321 12.6045L103.118 12.7939L103.172 13.0674L104.425 19.4629L98.7303 16.2939L98.4871 16.1592L98.244 16.2939L92.5486 19.4629L93.8026 13.0674L93.8563 12.7939L93.6522 12.6045L88.8787 8.16699L95.3484 7.38379L95.6248 7.35059L95.742 7.09766L98.4861 1.1875L101.231 7.09766ZM130.298 7.09766L130.415 7.34961L130.691 7.38379L137.16 8.16699L132.388 12.6045L132.183 12.7939L132.237 13.0674L133.49 19.4619L127.796 16.2939L127.553 16.1592L127.31 16.2939L121.614 19.4619L122.868 13.0674L122.921 12.7939L122.718 12.6045L117.944 8.16699L124.414 7.38379L124.69 7.35059L124.807 7.09766L127.553 1.1875L130.298 7.09766Z" fill="url(#paint0_linear_235_42)" stroke="#FFC633"/>
<defs>
<linearGradient id="paint0_linear_235_42" x1="0.552551" y1="10.2114" x2="138.289" y2="10.2114" gradientUnits="userSpaceOnUse">
<stop stop-color="#FFC633"/>
<stop offset="0.3" stop-color="#FFC633"/>
<stop offset="0.3" stop-color="white"/>
<stop offset="1" stop-color="white"/>
</linearGradient>
</defs>
</svg>
